<?xml version="1.0" encoding="iso-8859-1"?>
<!-- Generator: Adobe Illustrator 17.1.0, SVG Export Plug-In . SVG Version: 6.00 Build 0)  -->
<!DOCTYPE svg PUBLIC "-//W3C//DTD SVG 1.1//EN" "http://www.w3.org/Graphics/SVG/1.1/DTD/svg11.dtd">
<svg version="1.1" id="Capa_1" xmlns="http://www.w3.org/2000/svg" xmlns:xlink="http://www.w3.org/1999/xlink" x="0px" y="0px"
	 viewBox="0 0 206.839 206.839" style="enable-background:new 0 0 206.839 206.839;" xml:space="preserve">
<path d="M11.548,206.839c-0.512,0-1.023-0.195-1.414-0.586l-9.546-9.546c-0.375-0.375-0.586-0.884-0.586-1.414
	s0.211-1.039,0.586-1.414l5.623-5.623l-1.414-1.415c-0.781-0.781-0.781-2.047,0-2.828l24.867-24.867
	c0.389-0.388,0.936-0.592,1.47-0.585l2.923,0.082l26.489-26.489c0.727-0.728,1.874-0.778,2.661-0.15L192.801,2.409h0h0
	C194.354,0.855,196.419,0,198.616,0s4.263,0.855,5.816,2.409c3.207,3.207,3.207,8.424,0,11.631L74.837,143.636
	c0.281,0.352,0.436,0.791,0.436,1.246c0,0.53-0.211,1.039-0.586,1.414l-13.248,13.249c0.483,0.205,0.876,0.596,1.078,1.102
	c0.295,0.742,0.121,1.589-0.444,2.154l-39.245,39.244c-0.78,0.781-2.047,0.781-2.828,0l-1.414-1.414l-5.623,5.622
	C12.572,206.644,12.059,206.839,11.548,206.839z M4.83,195.293l6.717,6.717l4.208-4.208l-6.717-6.717L4.83,195.293z M9.039,185.428
	l12.374,12.374l34.535-34.535l-21.154-0.59c-0.072-0.002-0.144-0.008-0.214-0.017l-2.698-0.075L9.039,185.428z M39.559,158.797
	l16.51,0.46l14.375-14.375l-8.485-8.485l-3.589,3.589l0.471,0.471c0.781,0.781,0.781,2.047,0,2.829
	c-0.781,0.781-2.047,0.781-2.829,0l-0.472-0.472L39.559,158.797z M66.106,134.761l5.975,5.975L201.604,11.212
	c1.647-1.647,1.647-4.328,0-5.975C200.806,4.439,199.745,4,198.616,4s-2.189,0.439-2.987,1.237c0,0,0,0,0,0L66.106,134.761z"/>
<g>
</g>
<g>
</g>
<g>
</g>
<g>
</g>
<g>
</g>
<g>
</g>
<g>
</g>
<g>
</g>
<g>
</g>
<g>
</g>
<g>
</g>
<g>
</g>
<g>
</g>
<g>
</g>
<g>
</g>
</svg>
